<?xml version="1.0" standalone="no"?>
<!DOCTYPE svg PUBLIC "-//W3C//DTD SVG 20010904//EN"
 "http://www.w3.org/TR/2001/REC-SVG-20010904/DTD/svg10.dtd">
<svg version="1.0" xmlns="http://www.w3.org/2000/svg"
 width="200.000000pt" height="200.000000pt" viewBox="0 0 200.000000 200.000000"
 preserveAspectRatio="xMidYMid meet">
<metadata>
Created by potrace 1.11, written by Peter Selinger 2001-2013
</metadata>
<g transform="translate(0.000000,200.000000) scale(0.100000,-0.100000)"
fill="#000000" stroke="none">
<path d="M0 1705 c0 -256 2 -295 15 -295 13 0 15 38 15 280 l0 280 970 0 970
0 0 -280 c0 -242 2 -280 15 -280 13 0 15 39 15 295 l0 295 -1000 0 -1000 0 0
-295z"/>
<path d="M760 1645 c-215 -215 -232 -235 -205 -235 25 0 60 30 237 207 l208
208 208 -208 c163 -163 214 -208 231 -205 18 2 -20 44 -211 236 l-233 232
-235 -235z"/>
<path d="M462 1192 c-48 -25 -109 -89 -132 -137 -39 -81 -18 -193 46 -244 42
-33 110 -29 170 12 65 43 68 63 6 31 -45 -23 -54 -25 -87 -14 -47 15 -86 74
-93 138 -13 136 90 247 169 183 32 -26 33 -90 1 -124 -31 -33 -27 -41 9 -20
61 36 88 121 53 171 -19 28 -94 30 -142 4z"/>
<path d="M942 1199 c-22 -9 -22 -9 -20 -206 l3 -198 28 -3 c27 -3 57 12 57 28
0 5 -9 6 -20 3 -19 -5 -20 1 -22 190 l-3 194 -23 -8z"/>
<path d="M1072 1200 c-22 -9 -22 -10 -20 -201 3 -163 5 -193 19 -202 21 -13
65 -2 73 19 4 12 1 14 -14 9 -20 -6 -20 -2 -20 189 0 108 -3 196 -7 195 -5 0
-18 -4 -31 -9z"/>
<path d="M1204 1160 c-19 -7 -21 -13 -14 -50 13 -72 35 -66 46 13 7 48 4 52
-32 37z"/>
<path d="M167 1058 c-36 -29 -66 -56 -67 -60 0 -6 97 -84 128 -102 24 -14 12
14 -23 53 -19 21 -35 42 -35 46 0 4 16 30 36 57 20 27 34 51 32 54 -3 2 -35
-19 -71 -48z"/>
<path d="M1770 1105 c0 -4 16 -29 35 -55 19 -26 35 -51 35 -55 0 -4 -16 -25
-35 -46 -52 -58 -42 -65 25 -18 59 41 87 67 79 72 -2 2 -26 21 -54 43 -80 63
-85 67 -85 59z"/>
<path d="M1358 1029 c-13 -7 -18 -22 -18 -51 0 -25 -7 -49 -17 -60 -9 -10 -11
-18 -5 -18 6 0 15 8 20 17 9 15 13 14 41 -8 31 -25 48 -60 36 -78 -9 -16 -46
-13 -65 4 -15 14 -19 13 -35 -6 -16 -17 -17 -22 -5 -29 35 -22 90 -14 118 16
32 37 29 77 -12 122 -28 30 -32 41 -24 56 14 25 -10 49 -34 35z m19 -31 c-3
-8 -6 -5 -6 6 -1 11 2 17 5 13 3 -3 4 -12 1 -19z"/>
<path d="M714 1001 c-46 -28 -64 -59 -64 -111 0 -57 20 -86 69 -101 68 -20
129 29 138 113 4 37 1 49 -22 76 -29 34 -55 41 -74 18 -9 -11 -4 -21 24 -49
41 -41 47 -85 15 -117 -26 -26 -46 -25 -75 5 -36 35 -34 90 5 143 33 47 30 51
-16 23z"/>
<path d="M1563 1006 c-66 -30 -98 -143 -55 -197 25 -30 78 -31 103 0 17 21 18
21 24 1 8 -27 56 -27 80 0 18 20 18 20 -6 18 -23 -3 -24 1 -29 58 -5 59 -6 61
-27 53 -18 -6 -23 -16 -23 -41 0 -40 -24 -78 -49 -78 -45 0 -63 77 -31 128 25
41 44 48 73 30 37 -24 75 -6 44 21 -23 19 -70 22 -104 7z"/>
<path d="M1203 1003 c-14 -5 -19 -166 -7 -197 7 -19 55 -21 72 -4 18 18 15 27
-8 21 -19 -5 -20 0 -20 91 0 97 -3 103 -37 89z"/>
<path d="M0 270 l0 -270 1000 0 1000 0 0 270 c0 233 -2 270 -15 270 -13 0 -15
-35 -15 -255 l0 -255 -970 0 -970 0 0 255 c0 220 -2 255 -15 255 -13 0 -15
-37 -15 -270z"/>
<path d="M795 330 l210 -210 208 207 c190 190 205 208 181 211 -23 3 -52 -22
-211 -180 l-183 -183 -183 183 c-138 138 -188 182 -207 182 -21 0 11 -36 185
-210z"/>
</g>
</svg>
