<svg width="183" height="44" viewBox="0 0 183 44" fill="none" xmlns="http://www.w3.org/2000/svg">
<path d="M15.4277 31.6621L14.4023 32.9219L0.193359 22.3457L14.4023 10.8906L15.4277 11.7402L7.54688 22.3457L15.4277 31.6621ZM53.3965 8.13672C53.3965 9.62109 53.1035 11.0957 52.5176 12.5605C51.9316 14.0254 51.1406 15.3828 50.1445 16.6328C49.168 17.8828 48.0352 18.9766 46.7461 19.9141C45.457 20.8516 44.1191 21.5254 42.7324 21.9355L42.1172 20.9102C42.9375 20.5 43.6895 19.9727 44.373 19.3281C45.0566 18.6836 45.6426 17.9609 46.1309 17.1602C46.6191 16.3398 46.9902 15.4805 47.2441 14.582C47.5176 13.6641 47.6543 12.7363 47.6543 11.7988C47.6543 10.7246 47.498 9.70898 47.1855 8.75195C46.873 7.79492 46.4141 6.96484 45.8086 6.26172C45.2031 5.53906 44.4512 4.97266 43.5527 4.5625C42.6738 4.15234 41.6582 3.94727 40.5059 3.94727C39.0996 3.94727 37.8105 4.2207 36.6387 4.76758C35.4668 5.31445 34.4121 6.05664 33.4746 6.99414C32.5371 7.91211 31.7168 8.97656 31.0137 10.1875C30.3301 11.3789 29.7539 12.6387 29.2852 13.9668C28.8359 15.2754 28.4941 16.6035 28.2598 17.9512C28.0254 19.2988 27.9082 20.5684 27.9082 21.7598C27.9082 22.9707 28.0352 24.2207 28.2891 25.5098C28.543 26.7988 28.9141 28.0684 29.4023 29.3184C29.8906 30.5684 30.4961 31.75 31.2188 32.8633C31.9414 33.9766 32.7715 34.9531 33.709 35.793C34.666 36.6328 35.7207 37.3066 36.873 37.8145C38.0449 38.3027 39.3145 38.5469 40.6816 38.5469C41.6191 38.5469 42.5273 38.4199 43.4062 38.166C44.3047 37.9121 45.1641 37.5703 45.9844 37.1406C46.8047 36.7109 47.5762 36.2031 48.2988 35.6172C49.041 35.0312 49.7246 34.3965 50.3496 33.7129L51.3164 34.6504C50.457 35.7832 49.4316 36.877 48.2402 37.9316C47.0684 38.9668 45.7988 39.8945 44.4316 40.7148C43.0645 41.5156 41.6289 42.1602 40.125 42.6484C38.6406 43.1172 37.166 43.3516 35.7012 43.3516C34.2754 43.3516 32.9277 43.1074 31.6582 42.6191C30.4082 42.1113 29.2559 41.4375 28.2012 40.5977C27.1465 39.7383 26.1992 38.7422 25.3594 37.6094C24.5391 36.457 23.8359 35.2363 23.25 33.9473C22.6836 32.6582 22.2441 31.3301 21.9316 29.9629C21.6387 28.5957 21.4922 27.2578 21.4922 25.9492C21.4922 24.0547 21.8047 22.1113 22.4297 20.1191C23.0742 18.1074 23.9531 16.1641 25.0664 14.2891C26.1797 12.3945 27.4883 10.6074 28.9922 8.92773C30.5156 7.24805 32.1465 5.7832 33.8848 4.5332C35.6426 3.2832 37.4688 2.29688 39.3633 1.57422C41.2773 0.832031 43.1816 0.460938 45.0762 0.460938C46.248 0.460938 47.3418 0.636719 48.3574 0.988281C49.373 1.32031 50.252 1.80859 50.9941 2.45312C51.7363 3.09766 52.3223 3.89844 52.752 4.85547C53.1816 5.8125 53.3965 6.90625 53.3965 8.13672ZM65.7891 43.6738C64.3438 43.6738 62.9863 43.4199 61.7168 42.9121C60.4668 42.3848 59.373 41.6621 58.4355 40.7441C57.5176 39.8262 56.7852 38.752 56.2383 37.5215C55.7109 36.2715 55.4473 34.9141 55.4473 33.4492C55.4473 31.7891 55.7207 30.2363 56.2676 28.791C56.8145 27.3262 57.5664 26.0078 58.5234 24.8359C59.5 23.6641 60.6426 22.6484 61.9512 21.7891C63.2793 20.9297 64.7148 20.2559 66.2578 19.7676L67.1074 20.793C66.2285 21.4375 65.4082 22.1797 64.6465 23.0195C63.8848 23.8398 63.2207 24.7383 62.6543 25.7148C62.0879 26.6719 61.6387 27.6875 61.3066 28.7617C60.9746 29.8164 60.8086 30.9004 60.8086 32.0137C60.8086 32.9512 60.9453 33.9375 61.2188 34.9727C61.4922 36.0078 61.9023 36.9551 62.4492 37.8145C62.9961 38.6738 63.6797 39.3867 64.5 39.9531C65.3398 40.5 66.3066 40.7734 67.4004 40.7734C68.377 40.7734 69.2168 40.5977 69.9199 40.2461C70.6426 39.8945 71.2383 39.416 71.707 38.8105C72.1758 38.2051 72.5273 37.502 72.7617 36.7012C72.9961 35.8809 73.1133 35.0215 73.1133 34.123C73.1133 33.0684 72.9082 31.9941 72.498 30.9004C72.0879 29.7871 71.5215 28.7617 70.7988 27.8242C70.0957 26.8867 69.2656 26.1055 68.3086 25.4805C67.3516 24.8555 66.3262 24.4941 65.2324 24.3965C65.916 23.6152 66.668 22.8926 67.4883 22.2285C68.3086 21.5645 69.1387 20.9297 69.9785 20.3242C71.1113 20.6953 72.1074 21.2422 72.9668 21.9648C73.8457 22.6875 74.5781 23.5176 75.1641 24.4551C75.7695 25.3926 76.2285 26.418 76.541 27.5312C76.8535 28.625 77.0098 29.7383 77.0098 30.8711C77.0098 32.4141 76.7363 33.9473 76.1895 35.4707C75.6621 36.9941 74.9004 38.3711 73.9043 39.6016C72.9277 40.8125 71.7461 41.7988 70.3594 42.5605C68.9922 43.3027 67.4688 43.6738 65.7891 43.6738ZM92.0684 39.5723C91.834 40.0801 91.5312 40.5586 91.1602 41.0078C90.8086 41.457 90.4082 41.8574 89.959 42.209C89.5098 42.5605 89.0117 42.834 88.4648 43.0293C87.9375 43.2441 87.3906 43.3516 86.8242 43.3516C85.3008 43.3516 84.1875 42.9316 83.4844 42.0918C82.8008 41.2324 82.459 40.0703 82.459 38.6055V2.86328L87.8496 0.988281V38.752C87.8496 39.1426 87.9375 39.5039 88.1133 39.8359C88.2891 40.1484 88.6016 40.3047 89.0508 40.3047C89.5 40.3047 89.9199 40.1289 90.3105 39.7773C90.7207 39.4062 91.043 39.0449 91.2773 38.6934L92.0684 39.5723ZM105.838 39.5723C105.604 40.0801 105.301 40.5586 104.93 41.0078C104.578 41.457 104.178 41.8574 103.729 42.209C103.279 42.5605 102.781 42.834 102.234 43.0293C101.707 43.2441 101.16 43.3516 100.594 43.3516C99.0703 43.3516 97.957 42.9316 97.2539 42.0918C96.5703 41.2324 96.2285 40.0703 96.2285 38.6055V2.86328L101.619 0.988281V38.752C101.619 39.1426 101.707 39.5039 101.883 39.8359C102.059 40.1484 102.371 40.3047 102.82 40.3047C103.27 40.3047 103.689 40.1289 104.08 39.7773C104.49 39.4062 104.812 39.0449 105.047 38.6934L105.838 39.5723ZM115.447 4.76758L113.895 15.4609L111.023 16.3691L109.266 6.87695L115.447 4.76758ZM119.49 39.5723C119.041 40.5293 118.514 41.2617 117.908 41.7695C117.322 42.2773 116.756 42.6484 116.209 42.8828C115.564 43.1562 114.91 43.3125 114.246 43.3516C113.387 43.3516 112.674 43.2148 112.107 42.9414C111.541 42.668 111.092 42.3066 110.76 41.8574C110.428 41.4082 110.193 40.9004 110.057 40.334C109.939 39.7676 109.881 39.1914 109.881 38.6055V22.1699L115.271 20.3242V38.752C115.271 39.2207 115.379 39.5918 115.594 39.8652C115.809 40.1387 116.082 40.2852 116.414 40.3047C116.766 40.3047 117.137 40.1777 117.527 39.9238C117.938 39.6699 118.328 39.2598 118.699 38.6934L119.49 39.5723ZM136.072 34.9141C136.072 36.125 135.848 37.2578 135.398 38.3125C134.949 39.3672 134.334 40.2852 133.553 41.0664C132.791 41.8477 131.873 42.4629 130.799 42.9121C129.744 43.3613 128.602 43.5859 127.371 43.5859C126.844 43.5859 126.268 43.5371 125.643 43.4395C125.037 43.3418 124.432 43.1953 123.826 43C123.221 42.8047 122.645 42.5605 122.098 42.2676C121.57 41.9746 121.131 41.623 120.779 41.2129L124.236 36.7012C124.471 37.0723 124.754 37.4824 125.086 37.9316C125.438 38.3613 125.818 38.7617 126.229 39.1328C126.658 39.5039 127.107 39.8164 127.576 40.0703C128.064 40.3047 128.553 40.4219 129.041 40.4219C129.607 40.4219 130.135 40.3242 130.623 40.1289C131.131 39.9336 131.57 39.6602 131.941 39.3086C132.312 38.9375 132.605 38.5078 132.82 38.0195C133.035 37.5312 133.143 36.9941 133.143 36.4082C133.143 35.627 132.869 34.9141 132.322 34.2695C131.795 33.6055 131.16 32.9707 130.418 32.3652C129.695 31.7402 128.934 31.1055 128.133 30.4609C127.352 29.7969 126.717 29.0742 126.229 28.293L123.182 32.7461L122.039 31.8965L125.555 27.0332C125.281 26.4668 125.066 25.8711 124.91 25.2461C124.754 24.6211 124.676 23.9961 124.676 23.3711C124.676 22.8438 124.764 22.2871 124.939 21.7012C125.115 21.1152 125.369 20.5781 125.701 20.0898C126.033 19.6016 126.434 19.2012 126.902 18.8887C127.391 18.5566 127.947 18.3906 128.572 18.3906C129.178 18.3906 129.686 18.5762 130.096 18.9473C130.525 19.3184 130.74 19.8359 130.74 20.5C130.74 20.8516 130.682 21.2031 130.564 21.5547C130.447 21.9062 130.301 22.2578 130.125 22.6094C129.949 22.9609 129.754 23.3027 129.539 23.6348C129.324 23.9473 129.119 24.2402 128.924 24.5137C129.393 25.1777 129.9 25.7539 130.447 26.2422C130.994 26.7305 131.531 27.1895 132.059 27.6191C132.586 28.0488 133.094 28.4785 133.582 28.9082C134.07 29.3379 134.49 29.8262 134.842 30.373C135.213 30.9199 135.506 31.5547 135.721 32.2773C135.955 33 136.072 33.8789 136.072 34.9141ZM129.422 21.0273C129.422 20.7539 129.324 20.5488 129.129 20.4121C128.953 20.2754 128.748 20.207 128.514 20.207C128.182 20.207 127.947 20.3242 127.811 20.5586C127.674 20.7734 127.605 21.0176 127.605 21.291C127.605 21.6816 127.664 22.0625 127.781 22.4336C127.918 22.8047 128.084 23.1562 128.279 23.4883C128.357 23.3516 128.455 23.1758 128.572 22.9609C128.709 22.7461 128.836 22.5215 128.953 22.2871C129.09 22.0332 129.197 21.7988 129.275 21.584C129.373 21.3496 129.422 21.1641 129.422 21.0273ZM163.729 39.5137C163.494 40.0215 163.201 40.5 162.85 40.9492C162.498 41.3984 162.088 41.7988 161.619 42.1504C161.17 42.502 160.672 42.7852 160.125 43C159.598 43.1953 159.041 43.293 158.455 43.293C156.912 43.293 155.799 42.873 155.115 42.0332C154.451 41.1738 154.119 40.0117 154.119 38.5469V38.0195C153.768 38.6836 153.367 39.3477 152.918 40.0117C152.488 40.6758 151.99 41.2715 151.424 41.7988C150.877 42.3262 150.262 42.7559 149.578 43.0879C148.895 43.4199 148.133 43.5859 147.293 43.5859C146.023 43.5859 144.9 43.3418 143.924 42.8535C142.947 42.3652 142.127 41.7109 141.463 40.8906C140.799 40.0508 140.301 39.0742 139.969 37.9609C139.637 36.8477 139.471 35.666 139.471 34.416C139.471 32.7168 139.764 31.0273 140.35 29.3477C140.955 27.6484 141.795 26.1348 142.869 24.8066C143.963 23.4785 145.262 22.4043 146.766 21.584C148.289 20.7441 149.979 20.3242 151.834 20.3242C152.576 20.3242 153.318 20.3926 154.061 20.5293C154.803 20.666 155.506 20.8906 156.17 21.2031C156.854 21.4961 157.469 21.8867 158.016 22.375C158.582 22.8633 159.041 23.459 159.393 24.1621L155.027 26.0078C154.793 25.6367 154.52 25.2852 154.207 24.9531C153.914 24.6016 153.582 24.2988 153.211 24.0449C152.859 23.791 152.479 23.5859 152.068 23.4297C151.658 23.2734 151.229 23.1953 150.779 23.1953C149.764 23.1953 148.855 23.5078 148.055 24.1328C147.273 24.7578 146.6 25.5293 146.033 26.4473C145.486 27.3652 145.066 28.3418 144.773 29.377C144.48 30.4121 144.334 31.3496 144.334 32.1895C144.334 32.9316 144.402 33.7715 144.539 34.709C144.695 35.627 144.959 36.4961 145.33 37.3164C145.701 38.1367 146.189 38.8301 146.795 39.3965C147.4 39.9629 148.162 40.2461 149.08 40.2461C149.803 40.2461 150.428 40.0898 150.955 39.7773C151.482 39.4453 151.932 39.0254 152.303 38.5176C152.674 37.9902 152.977 37.3945 153.211 36.7305C153.465 36.0469 153.65 35.3535 153.768 34.6504C153.904 33.9473 153.992 33.2539 154.031 32.5703C154.09 31.8672 154.119 31.2422 154.119 30.6953V28.6738L159.451 26.7988V38.6934C159.451 39.084 159.549 39.4453 159.744 39.7773C159.939 40.0898 160.242 40.2461 160.652 40.2461C161.141 40.2461 161.58 40.0703 161.971 39.7188C162.381 39.3477 162.703 38.9766 162.938 38.6055L163.729 39.5137ZM182.771 22.3457L168.562 32.9219L167.537 31.6621L175.389 22.3457L167.537 11.7402L168.562 10.8906L182.771 22.3457Z" fill="black"/>
</svg>
